<svg width="20" height="20" viewBox="0 0 20 20" fill="none" xmlns="http://www.w3.org/2000/svg">
<rect width="20" height="20" fill="url(#paint0_linear_716_1318)"/>
<path d="M9.50137 5H10.4508C10.684 5.08965 10.9831 5.09376 11.229 5.15065C12.4452 5.43201 13.8883 6.49824 14.4072 7.66186C14.4331 7.72047 14.4573 7.77982 14.4797 7.83987C14.226 7.65669 13.6903 7.4764 13.3905 7.3673C12.1855 6.92879 10.9615 6.64453 9.68648 6.51584C9.36471 6.48336 8.9437 6.44157 8.62376 6.49428C8.59431 6.49914 8.56498 6.50474 8.53578 6.51107C10.7451 6.71783 13.291 8.3574 14.9818 9.72638C14.9957 9.91748 15.0017 10.1091 14.9996 10.3007C13.0586 10.2917 10.3402 10.0858 8.50248 9.41822C8.33802 9.36241 8.17413 9.30499 8.01079 9.24593C8.18958 9.36074 8.27591 9.41869 8.47247 9.49378C9.8575 10.2649 11.7562 10.8177 13.3006 11.173C13.7404 11.2742 14.4008 11.3599 14.7706 11.4647C14.7185 11.7142 14.481 12.3731 14.2689 12.5418C14.1845 12.6088 13.7543 12.6981 13.618 12.7318C12.2788 13.0634 10.5626 13.0866 9.21042 12.7899C8.47504 12.636 7.76112 12.3925 7.08453 12.0648C8.89686 13.4844 11.0131 13.869 13.2541 13.7918C12.7481 14.2532 12.1112 14.6069 11.452 14.7981C11.2845 14.8467 10.8064 14.9393 10.6876 15H9.2939C9.21144 14.9546 8.65991 14.8301 8.53766 14.7954C8.0993 14.6709 7.67034 14.4834 7.29351 14.224C7.22125 14.1743 7.09454 14.1273 7.05991 14.0704C7.13371 14.059 7.76731 14.3218 7.8882 14.3605C8.62884 14.5975 9.38703 14.7714 10.1667 14.7636C9.88811 14.6977 9.61337 14.6165 9.34367 14.5203C8.0552 14.0659 6.87426 13.3487 5.87514 12.4138C5.66664 12.2208 5.48157 12.0677 5.32493 11.8251C5.13022 11.5235 5.13097 10.9836 5 10.7126V10.4242C5.42365 10.5417 6.09104 10.833 6.55908 10.9763C8.47538 11.5631 10.2751 11.9721 12.2862 11.9842C11.6594 11.841 11.1487 11.758 10.507 11.559C8.88361 11.0555 7.359 10.3601 5.88509 9.51339C5.64034 9.37278 5.29327 9.18178 5.07244 9.02745C5.14561 8.65766 5.20747 8.42756 5.36318 8.08438C7.25927 8.11178 10.3308 8.47063 12.1058 9.11394L12.6578 9.28793C12.5032 9.19207 12.2326 9.06084 12.0629 8.97289C11.7253 8.84803 11.2162 8.58249 10.827 8.42693C9.56658 7.93047 8.26998 7.53211 6.9487 7.23537C6.6788 7.17377 6.22244 7.05612 5.96748 7.0395C6.08345 6.84341 6.22347 6.66557 6.37917 6.49981C6.66143 6.1993 7.01591 5.87187 7.40073 5.71898C7.87968 5.52868 9.75964 5.59167 10.3242 5.63734C10.6826 5.66634 11.051 5.74392 11.4093 5.73322C10.6423 5.51207 9.65773 5.26532 8.87205 5.17125L8.86863 5.1441C8.99451 5.05771 9.29498 5.08545 9.50137 5Z" fill="white"/>
<defs>
<linearGradient id="paint0_linear_716_1318" x1="10" y1="0" x2="10" y2="20" gradientUnits="userSpaceOnUse">
<stop stop-color="#77BB44" stop-opacity="0.75"/>
<stop offset="1" stop-color="#77BB44"/>
</linearGradient>
</defs>
</svg>
