<svg width="20" height="20" viewBox="0 0 20 20" fill="none" xmlns="http://www.w3.org/2000/svg">
<rect width="20" height="20" fill="#0E0E0E"/>
<path d="M10.0097 5C7.02397 5 5 7.1348 5 10C5 12.8652 7.02334 15 10.0097 15C12.9961 15 15 12.8463 15 10C15 7.15366 12.9767 5 10.0097 5ZM10.0186 12.4822C9.66476 12.4829 9.31422 12.4154 8.98695 12.2836C8.92356 12.2574 8.85361 12.2501 8.786 12.2629L7.65373 12.4762C7.60896 12.4841 7.56286 12.4803 7.52003 12.4653C7.47721 12.4503 7.43917 12.4245 7.40973 12.3906C7.38028 12.3566 7.36046 12.3157 7.35226 12.2719C7.34406 12.2281 7.34776 12.183 7.36299 12.141L7.67152 11.2627C7.68092 11.2356 7.68458 11.2069 7.68229 11.1784C7.67999 11.1499 7.6718 11.1221 7.65818 11.0968C7.47919 10.756 7.38618 10.3781 7.38692 9.99484C7.36857 9.48154 7.50729 8.97464 7.78531 8.53907C8.06333 8.10351 8.46798 7.75918 8.94732 7.55025C9.42665 7.34132 9.95882 7.27733 10.4756 7.36648C10.9923 7.45562 11.4701 7.69384 11.8475 8.05058C12.225 8.40732 12.485 8.8663 12.5941 9.36864C12.7032 9.87101 12.6565 10.3938 12.46 10.87C12.2635 11.3462 11.9261 11.7541 11.4911 12.0413C11.0561 12.3285 10.5433 12.4822 10.0186 12.4822Z" fill="white"/>
</svg>
