<svg width="20" height="20" viewBox="0 0 20 20" fill="none" xmlns="http://www.w3.org/2000/svg">
<rect width="20" height="20" fill="white"/>
<rect width="20" height="20" fill="#E16335"/>
<path d="M6.90204 7.71642C6.90204 6.1791 8.04695 5 10.0543 5C13.2213 5 13.5187 7.16418 12.3589 8.16418C12.0169 6.89552 11.3627 5.31343 10.0245 5.31343C8.67144 5.31343 8.13616 6.34328 8.15103 7.34328C8.21051 10.209 13.489 9.22388 13.489 12.4925C13.489 14.0448 12.1954 15 9.84609 15C7.60088 15 5.7274 14.0746 6.84257 11.4627C7.48193 13.1045 8.34433 14.6866 10.0989 14.6866C11.4668 14.6866 12.1954 13.9254 12.1954 12.8955C12.1954 10.3134 6.90204 10.9403 6.90204 7.71642Z" fill="white"/>
</svg>
