<svg width="20" height="20" viewBox="0 0 20 20" fill="none" xmlns="http://www.w3.org/2000/svg">
<rect width="20" height="20" fill="white"/>
<g clip-path="url(#clip0_2719_372)">
<path d="M12.6349 11.6878L12.5869 11.6999C12.7857 11.0837 13.5177 8.81331 13.5126 8.80262L12.8959 6.73784C12.8959 6.73784 12.5797 6.37354 11.3198 6.71858C10.0693 7.0615 8.9994 7.81223 8.9994 7.81223C8.9994 7.81223 8.90038 7.87636 8.74559 7.9846L8.57672 7.82051C8.57672 7.82051 8.23362 8.00221 7.86911 8.28883C7.63531 8.47294 7.48714 8.65825 7.44475 8.7141C7.41348 8.73473 7.39686 8.74617 7.39686 8.74617L6.577 9.91991L6.39404 11.3991L6.91179 10.9345L6.84982 11.5803C6.84982 11.5803 6.48742 13.3713 6.98193 13.4339C7.04263 13.4416 7.11094 13.4484 7.18686 13.4533L7.18616 13.4548C7.18616 13.4548 7.41207 13.4687 7.57475 13.4657C7.73742 13.4625 7.91306 13.4517 7.91306 13.4517L7.9132 13.4493C8.43151 13.4152 9.09531 13.3126 9.88094 13.0807C10.5309 12.889 11.1504 12.6102 11.6274 12.3667L11.6302 12.3747C11.6302 12.3747 11.758 12.3196 12.1153 12.1134C12.4694 11.9091 12.5731 11.8317 12.6824 11.762C12.7918 11.6925 12.6349 11.6878 12.6349 11.6878Z" fill="white"/>
<path d="M7.58539 13.1332C6.92046 13.1126 6.40737 12.8886 6.15666 12.4468C5.73793 11.7085 6.1561 10.5491 7.12582 9.42863C7.15976 9.17121 7.27638 8.93412 7.44244 8.71252C5.70638 9.83283 4.70272 11.2751 5.07849 12.322C5.32624 13.012 6.12539 13.3964 7.21004 13.4569C7.34134 13.3574 7.4667 13.2493 7.58539 13.1332Z" fill="#0059A3"/>
<path d="M9.88568 12.614C9.33834 12.8491 8.80919 13.0063 8.32673 13.0822C8.19113 13.2157 8.04773 13.3397 7.89738 13.4537C8.52748 13.4163 9.22286 13.2868 9.94399 13.0622C9.92105 12.9134 9.90161 12.7639 9.88568 12.614Z" fill="#0059A3"/>
<path d="M11.6544 11.6084C11.3223 11.8465 10.977 12.0629 10.6204 12.2563C10.5992 12.4865 10.573 12.6899 10.543 12.8559C10.9374 12.7071 11.3238 12.535 11.7004 12.3406C11.6798 12.097 11.6644 11.8528 11.6544 11.6084Z" fill="#0059A3"/>
<path d="M14.9091 8.24224C14.8025 7.94546 14.5936 7.70495 14.3041 7.52288C14.5079 8.43098 13.7974 9.74867 12.521 10.9095C12.5203 11.2359 12.5098 11.5622 12.4897 11.8878C14.26 10.7625 15.2887 9.30037 14.9091 8.24224Z" fill="#0059A3"/>
<path d="M10.4556 7.38351C10.9175 7.26112 11.3656 7.17847 11.7882 7.13512V7.11525L12.2967 6.78843V7.10155C13.1235 7.07852 13.8247 7.22108 14.3042 7.5229C14.2783 7.40517 14.2353 7.2925 14.1767 7.18901C13.6805 6.31348 12.1567 6.28985 10.4556 7.0183V7.38351Z" fill="#BCD4F0"/>
<path d="M9.94735 7.25645C9.62912 7.41772 9.31924 7.59717 9.01904 7.79402C8.9251 7.85559 8.83369 7.91882 8.74341 7.98265L8.75763 7.99574C8.87643 7.94118 8.99607 7.88874 9.11651 7.83843C9.38966 7.72514 9.66682 7.6232 9.94735 7.53284V7.25645Z" fill="#BCD4F0"/>
<path d="M7.62333 10.7187C7.20518 10.2336 7.07544 9.80889 7.12583 9.42868C6.15604 10.5491 5.73803 11.7085 6.15675 12.4467C6.40731 12.8886 6.92035 13.1125 7.58547 13.1332C8.41394 12.3141 8.31046 11.5158 7.62333 10.7187Z" fill="#89B4E1"/>
<path d="M14.3042 7.5229C13.8248 7.22107 13.1236 7.07851 12.2967 7.10154V7.74629L11.7884 8.07311V7.13511C11.3656 7.17847 10.9176 7.26096 10.4556 7.3835V7.74629L9.94731 8.07311V7.53283C9.66676 7.62313 9.3896 7.72507 9.11647 7.83842C8.99478 7.889 8.87548 7.94184 8.75759 7.99573L8.92069 8.14612C8.08478 8.65855 7.58703 9.29578 8.56154 10.3857C9.36675 11.2863 9.1628 12.254 8.32661 13.0823C8.80914 13.0062 9.3383 12.8491 9.88562 12.6141C9.74858 11.3407 9.76759 9.55064 9.94731 8.6846L10.4556 8.35778C10.7108 9.45053 10.7222 11.156 10.6204 12.2564C10.8569 12.1281 11.0885 11.9897 11.3146 11.8417C11.4293 11.7663 11.5426 11.6886 11.6544 11.6085C11.6087 10.5206 11.6527 9.33883 11.7884 8.6846L12.2967 8.35778C12.4614 9.06244 12.5244 10.022 12.5213 10.9097C13.7975 9.7486 14.508 8.43094 14.3042 7.5229Z" fill="#89B4E1"/>
</g>
<defs>
<clipPath id="clip0_2719_372">
<rect width="10" height="7" fill="white" transform="translate(5 6.5)"/>
</clipPath>
</defs>
</svg>
